<svg width="1200" height="900" viewBox="0 0 1200 900" fill="none" xmlns="http://www.w3.org/2000/svg">
  <defs>
    <linearGradient id="bg" x1="120" y1="80" x2="1040" y2="820" gradientUnits="userSpaceOnUse">
      <stop stop-color="#101826"/>
      <stop offset="0.55" stop-color="#3A1722"/>
      <stop offset="1" stop-color="#6E2032"/>
    </linearGradient>
    <linearGradient id="gold" x1="274" y1="176" x2="944" y2="768" gradientUnits="userSpaceOnUse">
      <stop stop-color="#F5D69A"/>
      <stop offset="1" stop-color="#A66E2D"/>
    </linearGradient>
    <linearGradient id="panelA" x1="0" y1="0" x2="1" y2="1">
      <stop stop-color="#0D2739"/>
      <stop offset="1" stop-color="#2C5A87"/>
    </linearGradient>
    <linearGradient id="panelB" x1="0" y1="0" x2="1" y2="1">
      <stop stop-color="#29131E"/>
      <stop offset="1" stop-color="#8E1F2F"/>
    </linearGradient>
    <linearGradient id="panelC" x1="0" y1="0" x2="1" y2="1">
      <stop stop-color="#402619"/>
      <stop offset="1" stop-color="#D28E39"/>
    </linearGradient>
    <radialGradient id="spot" cx="0" cy="0" r="1" gradientUnits="userSpaceOnUse" gradientTransform="translate(304 232) rotate(90) scale(280 340)">
      <stop stop-color="#FFF0C8" stop-opacity="0.9"/>
      <stop offset="1" stop-color="#FFF0C8" stop-opacity="0"/>
    </radialGradient>
    <radialGradient id="spot2" cx="0" cy="0" r="1" gradientUnits="userSpaceOnUse" gradientTransform="translate(894 194) rotate(90) scale(264 320)">
      <stop stop-color="#EAC77D" stop-opacity="0.72"/>
      <stop offset="1" stop-color="#EAC77D" stop-opacity="0"/>
    </radialGradient>
  </defs>

  <rect width="1200" height="900" rx="44" fill="url(#bg)"/>
  <circle cx="304" cy="232" r="320" fill="url(#spot)"/>
  <circle cx="894" cy="194" r="286" fill="url(#spot2)"/>

  <g opacity="0.58" fill="#F8E7BC">
    <circle cx="166" cy="122" r="3"/>
    <circle cx="244" cy="84" r="2"/>
    <circle cx="386" cy="102" r="3"/>
    <circle cx="1034" cy="104" r="3"/>
    <circle cx="932" cy="84" r="2"/>
    <circle cx="846" cy="136" r="2.5"/>
    <circle cx="1048" cy="232" r="2.5"/>
    <circle cx="182" cy="264" r="2.5"/>
    <circle cx="968" cy="316" r="2"/>
    <circle cx="248" cy="328" r="2"/>
  </g>

  <g opacity="0.26">
    <path d="M82 742C252 610 416 578 606 590C774 600 958 654 1118 798" stroke="#F6DCA6" stroke-width="2"/>
    <path d="M92 782C266 642 446 618 606 628C770 638 932 684 1092 816" stroke="#F6DCA6" stroke-width="2"/>
  </g>

  <g>
    <rect x="168" y="172" width="864" height="526" rx="30" fill="#130F15" stroke="url(#gold)" stroke-width="8"/>
    <rect x="210" y="214" width="782" height="442" rx="20" fill="#0A0D12"/>

    <g fill="#F4D79A">
      <rect x="192" y="242" width="18" height="32" rx="6"/>
      <rect x="192" y="302" width="18" height="32" rx="6"/>
      <rect x="192" y="362" width="18" height="32" rx="6"/>
      <rect x="192" y="422" width="18" height="32" rx="6"/>
      <rect x="192" y="482" width="18" height="32" rx="6"/>
      <rect x="192" y="542" width="18" height="32" rx="6"/>
      <rect x="992" y="242" width="18" height="32" rx="6"/>
      <rect x="992" y="302" width="18" height="32" rx="6"/>
      <rect x="992" y="362" width="18" height="32" rx="6"/>
      <rect x="992" y="422" width="18" height="32" rx="6"/>
      <rect x="992" y="482" width="18" height="32" rx="6"/>
      <rect x="992" y="542" width="18" height="32" rx="6"/>
    </g>

    <g>
      <rect x="254" y="252" width="212" height="366" rx="22" fill="url(#panelA)"/>
      <rect x="494" y="252" width="212" height="366" rx="22" fill="url(#panelB)"/>
      <rect x="734" y="252" width="212" height="366" rx="22" fill="url(#panelC)"/>

      <circle cx="360" cy="362" r="62" fill="#8FC7FF" fill-opacity="0.84"/>
      <path d="M272 516C300 456 340 430 396 420C420 416 446 418 466 428V618H254V564C256 546 262 532 272 516Z" fill="#0E1725" fill-opacity="0.72"/>
      <path d="M302 292L392 274L370 246L428 270L442 222L456 276L510 268L470 304L506 336L448 322L442 376L410 328L352 362L378 314L302 292Z" fill="#E4F3FF" fill-opacity="0.82"/>

      <path d="M594 258L614 338L694 358L626 406L636 490L568 448L498 488L514 404L454 356L536 338L594 258Z" fill="#F3D190"/>
      <circle cx="600" cy="492" r="72" fill="#34101A" fill-opacity="0.6"/>
      <path d="M546 540C560 486 590 452 640 432C664 424 686 424 706 430V618H506V578C512 564 522 552 546 540Z" fill="#150A0F" fill-opacity="0.72"/>

      <circle cx="838" cy="344" r="68" fill="#FFE0A6" fill-opacity="0.82"/>
      <path d="M754 546C782 480 826 444 886 430C910 424 930 426 946 434V618H734V582C736 566 744 554 754 546Z" fill="#4B2819" fill-opacity="0.56"/>
      <path d="M828 288C844 310 876 330 912 336C878 346 854 360 838 382C824 360 804 346 772 336C804 328 824 314 828 288Z" fill="#FFF4D8"/>
    </g>
  </g>

  <g opacity="0.48">
    <path d="M148 862H1054" stroke="#E0C17F" stroke-width="4" stroke-linecap="round"/>
    <path d="M154 838H1048" stroke="#E0C17F" stroke-width="2" stroke-linecap="round"/>
  </g>
</svg>
