<svg width="960" height="640" viewBox="0 0 960 640" fill="none" xmlns="http://www.w3.org/2000/svg">
  <defs>
    <linearGradient id="bg" x1="124" y1="74" x2="838" y2="610" gradientUnits="userSpaceOnUse">
      <stop stop-color="#091526"/>
      <stop offset="0.56" stop-color="#17345A"/>
      <stop offset="1" stop-color="#4F2C68"/>
    </linearGradient>
    <radialGradient id="planet" cx="0" cy="0" r="1" gradientUnits="userSpaceOnUse" gradientTransform="translate(720 178) rotate(90) scale(132 132)">
      <stop stop-color="#E6F5FF"/>
      <stop offset="1" stop-color="#8FD1FF"/>
    </radialGradient>
    <linearGradient id="grid" x1="0" y1="0" x2="1" y2="1">
      <stop stop-color="#53A8FF"/>
      <stop offset="1" stop-color="#C971FF"/>
    </linearGradient>
  </defs>

  <rect width="960" height="640" rx="34" fill="url(#bg)"/>
  <g opacity="0.7" fill="#DDEEFF">
    <circle cx="118" cy="118" r="3"/>
    <circle cx="196" cy="82" r="2"/>
    <circle cx="302" cy="136" r="2"/>
    <circle cx="420" cy="92" r="3"/>
    <circle cx="540" cy="142" r="2"/>
    <circle cx="682" cy="84" r="2"/>
    <circle cx="822" cy="126" r="3"/>
    <circle cx="866" cy="208" r="2"/>
    <circle cx="110" cy="216" r="2"/>
    <circle cx="258" cy="202" r="2"/>
  </g>

  <circle cx="722" cy="182" r="120" fill="url(#planet)"/>
  <circle cx="722" cy="182" r="148" stroke="#BEE4FF" stroke-opacity="0.42" stroke-width="6"/>
  <path d="M112 476C228 398 374 360 504 366C624 372 742 416 860 520" stroke="#8EDCFF" stroke-opacity="0.46" stroke-width="3"/>

  <g opacity="0.62" stroke="url(#grid)" stroke-width="2">
    <path d="M94 514H866"/>
    <path d="M118 548H842"/>
    <path d="M146 584H814"/>
    <path d="M192 456V602"/>
    <path d="M278 434V606"/>
    <path d="M372 414V610"/>
    <path d="M480 404V614"/>
    <path d="M590 414V610"/>
    <path d="M688 434V606"/>
    <path d="M772 456V602"/>
  </g>

  <path d="M128 462C210 376 294 324 432 294C484 282 548 276 616 284" stroke="#F9E59D" stroke-width="5" stroke-linecap="round"/>
  <circle cx="128" cy="462" r="10" fill="#FFF2C9"/>
  <circle cx="620" cy="284" r="8" fill="#FFF2C9"/>

  <path d="M178 402L236 388L222 352L262 386L292 338L296 396L360 398L312 426L336 484L282 444L248 498L244 438L178 402Z" fill="#F5C46E" fill-opacity="0.92"/>
</svg>
